<svg class="shrink-0 size-4 me-1" width="164" height="143" viewBox="0 0 164 143" fill="none">
                                        <path
                                            d="M81.1349 139.508L2.87045 4.50153C2.48398 3.83487 2.96501 3 3.73559 3H62.4308C62.7837 3 63.1104 3.18601 63.2906 3.48946L81.1286 33.5324C81.5188 34.1895 82.4718 34.1839 82.8542 33.5224L100.211 3.4995C100.39 3.19038 100.72 3 101.077 3H160.264C161.035 3 161.516 3.83487 161.13 4.50154L82.8651 139.508C82.4799 140.172 81.5201 140.172 81.1349 139.508Z"
                                            stroke="currentColor" stroke-width="5" stroke-linecap="round" />
                                        <path
                                            d="M81.1292 86.9894L33.8644 4.99943C33.4801 4.33276 33.9612 3.5 34.7307 3.5H62.9276C63.2822 3.5 63.6103 3.6878 63.7899 3.99358L81.1259 33.5116C81.515 34.1742 82.4751 34.1685 82.8564 33.5013L99.7121 4.00386C99.8901 3.69229 100.221 3.5 100.58 3.5H128.778C129.546 3.5 130.027 4.32894 129.647 4.99559L82.8641 86.9856C82.4813 87.6564 81.5149 87.6586 81.1292 86.9894Z"
                                            fill="currentColor" />
                                    </svg>